<?xml version="1.0" ?><svg enable-background="new 0 0 386.2 521.8" version="1.1" viewBox="0 0 386.2 521.8" xml:space="preserve" xmlns="http://www.w3.org/2000/svg" xmlns:xlink="http://www.w3.org/1999/xlink"><g id="Layer_20"><path d="M308.9,205.8c-3.1-5.4-8.6-10.2-14.7-12.6c-0.9-0.6-1.8-1.1-2.7-1.5c-1.9-0.9-4-1.5-6.2-1.8   c1.1-5.8,3-12.8,2.2-18.5c0.7-10.3-1.4-21.9-6.6-30.8c-1.3-10.6-12.9-20.5-19.6-27.6c-9.4-9.9-20-16-32.7-20.5   c-7-2.5-26.7-13.7-34.2-7.2c-3.7-2.6-9.1-2.2-13.5-1.5c-8.6,1.4-17.5,1.9-26,4.3c-9.3,2.6-19,8.2-26.7,13.9   c-4.5,3.3-9.2,6.5-12.7,10.7c-6.9,2.7-11.5,9.6-15.4,15.7c-5.4,8.4-10.4,17.2-12.9,26.9c-1.9,7.7-1.7,16.3-0.1,24.1   c0.7,3.7,3.3,10.8,7.3,14c0,0-0.1,0.1-0.1,0.1c0.1,0.2,0.4,0.5,0.6,0.7c0.1,0.1,0.1,0.2,0.1,0.2c0.1,0.1,0.2,0.2,0.3,0.2   c0.5,0.4-0.2,1.1-0.7,0.7c-0.2-0.1-0.3-0.2-0.5-0.3c-0.1,0-0.1,0-0.2,0c-0.6-0.2-1.2-0.2-1.8-0.3c-0.3,0-0.7-0.1-1-0.1   c-4.8-0.6-10.4,1-12.7,5.4c-0.3,0.1-0.6,0.2-0.8,0.4c-6.6,5-10,13.3-11.6,21.3c-1.6,8.4,1.9,16,7.7,22c6.2,6.4,16.4,7.9,24.9,6.8   c5-0.7,11.3-2.4,15.6-5.9c4.2,6.8,14.9,6.9,22.5,6.1c3.5-0.4,7.3-0.5,10.9-1c2.1-2.1,4.8-3.5,7.6-4.6c4.3-1.7,9.9-3.5,14.5-2.7   c0.7,0.1,1.2,0.6,1.4,1.1c1.1,0.3,2.2,0.6,3.3,1c0.2,0.1,0.4,0.1,0.6,0.2c2.5,1,4.6,2.4,5.5,4.8c0.6,1.6-0.9,2.6-2.2,2.5   c-0.3,0-0.6,0-0.9,0c-5.7-1.4-10.4-4-16.3-2.1c4.6,2.8,10.1,3.7,15.8,3.8c5.1,0.1,11.3,0.1,16.6-1.6c3.3,0.1,6.7-0.7,10-2   c0,0,0,0,0,0c0-1.8,1.9-3.2,3.3-4.1c0.1-0.1,0.2-0.1,0.4-0.2c0.2-0.2,0.4-0.5,0.6-0.6c2.8-1.8,5.5-2.5,8.2-2.6   c1.7-1.4,3.2-3.2,4.6-5.2c-0.2,0.9,0.1,2,0.7,2.7c1.8,1.9,3.8,3.4,5.9,4.6c1.8,0.6,3.5,1.3,5.1,2.2c8.1,2.5,17.3,1.3,24.7-3   c3-1.7,6-4.3,8.5-7.3c3.7,2.5,8.8,4.1,12.2,4.8c10.2,2.1,20.1,0.7,27.6-7.1C311.6,226.7,314.1,214.7,308.9,205.8z M221.1,235.7   c0.3-0.5,0.6-1,0.8-1.6c0.3,0.3,0.6,0.5,0.9,0.8C222.1,234.9,221.5,235.2,221.1,235.7z" fill="#FF8AD5"/></g><g id="shad"><path d="M282.4,173.2c-0.5-1.3-2.2-1-2.3,0.3c-0.5,4.5-2.2,9.5-3.8,13.7c-0.9,2.3-1.9,4.8-3.2,6.9   c-1.3,2.2-2.6,2.6-3.1,5.5c-0.1,0.6,0.2,1.1,0.8,1.1c3,0.1,4.5,0.1,7-1.8c2.2-1.8,3.8-4.8,4.6-7.5C284,185.3,284.3,179,282.4,173.2   z" fill="#231F20" opacity="0.6"/><path d="M310.3,222.1c-0.1-0.6-0.8-0.7-1.2-0.3c-4,3.5-7.9,5.8-13.2,7.1c-2.7,0.7-12.1,0.9-13.9-1.8   c-0.5-0.8-1.3-1.4-2.2-1.7c0.2-2.8,0-5.6-0.7-8.4c-0.4-1.6-2.3-2.8-3.8-2.2c-0.1,0-0.1,0.1-0.2,0.1c0-0.2-0.1-0.3-0.1-0.5   c-0.2-1-1.2-0.9-1.6-1.6c-1-1.5-2.8-2-3.6-3.4c-0.2-0.4-0.9-0.2-0.9,0.2c0.1,1.1,0,2.6,1.2,3.2c0.4,0.2,0.8,1.5,1.3,2.4   c-0.2,1-0.3,2-0.2,3c0.1,1,0.6,1.8,1.4,2.3c-0.2,1.5-0.2,3-0.1,4.5c0-0.1,0-0.2-0.1-0.3c-0.4-1.3-1.9-2.1-3.2-1.3   c-2.1,1.3-3.4,3.4-5.5,4.8c-2.7,1.8-5.8,2.6-8.9,3.5c-5.2,1.4-9-0.6-14.1-0.5c-0.8-0.1-1.2,0-1.1,0.1c-0.3-0.2-0.7-0.3-1-0.5   c-0.7-0.3-1.3-0.5-2-0.7c-1.2-1.2-2.6-2-4.3-2.3c-0.1-0.2-0.2-0.3-0.3-0.5c0.6,0.7-0.5-2.8-0.7-3.4c-1-3.4-3.8-6.1-6.4-8.3   c-0.7-0.6-1.9,0.2-1.4,1c1.8,3.1,0.2,6.4-0.2,9.6c0,0.2,0,0.5,0,0.7c-0.1,0-0.1,0.1-0.2,0.1c-2,2.1-3.6,4.5-5.6,6.6   c-2.9,3-6.9,4.8-10.7,6.4c-6.4,2.7-12.9,3.3-19.5,4.7c-2.6-1.3-6.1-1.2-8.9-1.3c-5-0.2-7.9-1.5-10.9-5.5c-1.3-1.8-3-2.9-5-3   c-0.4-0.8-0.8-1.7-0.9-2.6c-0.3-2.8-2.1-4.9-4.7-5.2c-0.7-4,0.9-9.1,2.4-12.3c0-0.1,0-0.1-0.1-0.1c-2.3,1.3-4.1,2.8-5.6,5   c-2.2,3.1-2.2,7-3.8,10.2c-1,1.9-0.7,4.4,0.8,5.8c-1.6,0.1-3.2,0.3-4.8,0.8c-2.8,0.8-6-0.3-8.7-1.1c-2.2-0.7-4.6-2.1-7-2.1   c-0.4,0-0.8,0.1-1.2,0.2c-1.8-2.9-4.6-5.4-6.8-7.7c-1.8-1.8-1.5-4.2-4.2-5.2c-0.5-0.2-1-0.3-1.4-0.4c0.2-2.5,2.1-5.7,3.4-8.4   c2.4-2.2,5.4-3.7,7.8-6c0.1-0.1,0.1-0.2,0.2-0.2c3.1,0.6,6.2,1,9.3,1.8c7.1,1.9,13.6,2.5,20.9,1.7c1.6-0.2,3.3-0.4,4.9-0.5   c0.8-0.1,1.6,1.2,2.8,1.8c3.4,1.6,6.6,1.9,10.1,0.5c1.8-0.7,0.6-1,2.5-0.4c2,0.7,3.7,1.3,5.9,1.5c3.4,0.4,6.8,0.2,10.2-0.1   c4.2-0.3,7.9-1.2,11.8-2.6c3.9-1.3,7-0.6,11.1-0.6c3.6,0,7.1-0.7,10.7-0.9c4.3-0.2,8.6-0.2,12.9-0.6c7-0.5,16.5-1.7,21.2-7.5   c1.6-2,0.9-5.9-2.3-5.7c-3.7,0.3-7.1,1.6-10.7,2.1c-4.3,0.5-8.7,0.2-13-0.1c-3.7-0.3-7.5-0.7-11.2-1c-4.1-0.3-7.9-1.3-12-1.8   c-7.9-0.9-15.2,3.3-22.9,4.3c-4.2,0.5-7.1-0.6-11.1-1c-1.7-0.2-3.2,0.1-4.7,0.6c-1.9-2.3-5.8-3.5-8.3-4.7c-1.6-0.8-3.8-0.4-4.6,1.3   c-0.5,0.3-0.9,0.9-1.1,1.6c-0.1,0.3-0.1,0.6-0.1,0.9c-3.1,0.2-6.3,0.7-9.4,0.8c-1.2,0-2.4,0-3.6-0.2c-1.3-0.5-2.6-1-3.8-1.3   c-3.3-0.9-6.4-2.5-9.3-4.3c0,0,0,0,0,0c-0.2-0.1-0.4-0.2-0.6-0.3c-1.9-0.8-3.1,0.7-3.3,2.3c-0.4-0.1-0.9-0.2-1.3-0.2   c-2.6-0.4-4.3-2.5-6.8-3.3c-2.4-0.9-5.4-1.5-7.9-1.6c-2.5-0.1-5.5-0.1-8.2,0.5c-0.3-0.4-0.6-0.9-0.9-1.3c0,0,0,0,0,0   c1.9-1.6,1-4.3-0.7-5.5c-2.2-1.6-2.6-6.3-3.2-8.8c-0.5-1.9-0.8-3.8-1.3-5.6c0.4-0.6,0.6-1.3,0.6-2.1c0-2.4-0.1-4.8-0.1-7.2   c1.5-0.5,2.6-1.7,2.3-3.7c-0.2-1.4-0.2-2.8-0.1-4.1c0.5-1.5,1.1-3.1,1.6-4.6c0.9-2.6,2-5,3.2-7.5c2.2-3.4,3.6-6.7,6.6-9.7   c0.5-0.5,0.8-1.1,1-1.8c0.1,0,0.2-0.1,0.4-0.1c1.1-0.5,1.9-0.9,2.8-1.8c0.2-0.2,0.4-0.5,0.6-0.7c0.9-0.7,1.9-1.4,2.8-2.1   c1.3-1,2.2-2.6,1.6-4.2c0.6-0.7,1.1-1.4,1.7-2.1c0.6-0.6,0.9-1.3,0.9-2c0.8-0.8,1.6-1.5,2.4-2.2c0.3-0.3,0.5-0.6,0.7-0.9   c1.6-1,3.2-2.1,4.6-3.4c0.5-0.4,0.7-0.9,0.9-1.3c2.7-2.3,5.3-4.8,8.2-7c0.3-0.2,0.5-0.5,0.6-0.8c4.4-2.4,8.5-5.5,13-7.8   c0.3-0.1,0.1-0.6-0.2-0.5c-5.3,1.7-10.2,4.4-15.3,6.4c-0.4,0.2-0.6,0.4-0.8,0.7c-2.2,0.9-4.7,1.4-6.8,2.6c-1.3,0.8-2.5,1.9-3.8,2.9   c-0.1,0-0.2,0-0.2,0.1c-3.2,1.8-7.3,3.4-10,5.9c-3.7,3.3-7.3,6.8-10.7,10.5c-6.8,7.4-13.9,16.4-17.7,25.8   c-3.5,8.8-5.6,18.2-4.5,27.7c1.1,9.6,5.9,17.1,11.9,24.1c-5.1-1.7-9.4-3.8-15.2-1.1c-5.4,2.5-9.3,7.2-11.4,12.7   c-0.4,1-0.6,1.9-0.9,2.9c-0.2,0.3-0.3,0.5-0.5,0.8c-0.1,0.1-0.1,0.2-0.1,0.4c-1,0.1-1.9,0.7-2.2,1.9c-3.6,10.2-0.9,23.4,7.3,30.7   c9.8,8.6,25.8,7.8,35.9,0.4c0.8-0.6,1.8-1.8,2.4-3.1c3.6,3.3,8.9,4.7,14.6,5.2c2.8,1.1,5.9,1.7,9.4,2.2c3.2,0.4,6.9,0.6,10.2-0.3   c1.8-1.8,4-3.1,6.3-4.1c0,0,0,0,0,0l0,0c0.4-0.2,0.9-0.4,1.3-0.5c4.3-1.7,9.9-3.5,14.5-2.7c0.7,0.1,1.2,0.6,1.4,1.1   c1.1,0.3,2.2,0.6,3.3,1c0.2,0.1,0.4,0.1,0.6,0.2c2.5,1,4.6,2.4,5.5,4.8c0.6,1.6-0.9,2.6-2.2,2.5c-0.3,0-0.6,0-0.9,0   c-5.5-1.3-10.2-3.9-15.8-2.3c2.8,1.9,6,3.1,9.2,3.8c2.1,0.4,4.3,0.3,6.4,0.2c1.2-0.1,2.4-0.1,3.5-0.1c0.6,0,3.1,0.4,2.5-0.2   c1.1,1.1,2.7,1.5,4.2,1.1c5.6-1.6,11.2-3.8,16.6-6.2c0.7-0.9,1.8-1.7,2.6-2.3c0.1-0.1,0.2-0.1,0.4-0.2c0.2-0.2,0.4-0.5,0.6-0.6   c2.6-1.7,5.1-2.4,7.6-2.6c1.9-1.1,3.8-2.5,5.5-4.1c0,1.2,0.7,2.4,1.8,3.1c2.1,1.4,4.4,2.8,6.8,3.9c0.4,0.2,0.8,0.4,1.2,0.5   c3.9,1.6,8,2.5,12.2,1.8c4-0.7,7.6-2.2,11.3-4c2.9-1.4,6.4-2.7,7.5-5.9c1.9-0.9,4.1-2.1,6-3.4c-0.8,1.9,1.5,3.6,3.3,3.3   c0.2,0,0.4-0.1,0.6-0.1c3.8,4.2,10.4,5.4,15.8,4.1c6-1.4,14.9-4.2,18.3-9.7c0.4-0.6,0.3-1.3,0-1.8C308.6,228,311,225.5,310.3,222.1   z M85.6,226.3c-0.4-0.9-0.5-1.9-0.2-2.9c0.2,0.9,0.5,1.7,0.5,2.4C85.7,225.9,85.7,226.1,85.6,226.3z M108.2,209.2   c-0.7,0.4-1.4,1-1.9,1.9c-0.8,1.6-1.5,3.2-2,4.9c-0.6,1.4-0.6,1.7,0.2,1c-0.7,0.7-1.1,1.6-1.5,2.5c-1.2,2.6-1.5,5.2-0.8,7.8   c-0.5,1.6-0.7,3.2-0.5,4.7c-0.1,0-0.2,0-0.3,0.1c-0.4,0.2-0.7,0.5-1,0.9c-0.1-1.3-0.5-2.6-1.5-3c-0.1-0.1-0.2-0.2-0.3-0.3   c-0.9-0.5-1.8-0.8-2.9-1c-1.9-0.4-1.4-2.1-1.4-3.9c0-1.5-1.7-2.1-2.8-1.2c-0.6,0.5-1.1,0.9-1.7,1.4c-0.5-1.3-1-2.6-1.5-3.9   c-0.6-1.6,1-5.2,1.5-6.9c0.3-0.9-0.2-1.6-0.9-2c0.2-0.2,0.4-0.3,0.6-0.5c1.5,0.4,3.1,0.1,4.3-1.4c0.5-0.6,1.1-1.2,1.6-1.7   c1.8-0.4,3.5-1.1,4.8-2c0.9-0.3,1.6-0.7,2.4-1.1c1.1,0.5,2.3,0.5,3.4,0.1c1.2,1,2.8,1.5,4.2,1c0.3-0.1,0.5-0.2,0.8-0.3   C110.2,207.2,109.2,208.1,108.2,209.2z" fill="#231F20" opacity="0.6"/><path d="M120,182.9c-1.6-3.3-4-5.8-5.3-9.3c-0.5-1.4-1.6-2.1-2.8-2.1c0-0.6-0.1-1.1,0-1.7   c0-0.9-0.5-1.6-1.3-1.9c-0.1-1.2-0.3-2.4-0.7-3.6c0-0.1-0.2-0.1-0.2-0.1c-1.4,1.7-1.8,3.9-2.8,5.8c-0.4,0.8-0.2,1.7,0.3,2.2   c-0.1,0.7-0.2,1.5-0.4,2.2c-0.6,2.1,1.3,3.7,3.2,3.4c1.7,4.1,4.3,8.2,9.3,6.9C120.1,184.5,120.3,183.6,120,182.9z" fill="#231F20" opacity="0.6"/><path d="M153.4,182.7c-2.7-1.7-5.8-1.7-8.9-2.2c-1.5-0.3-6.7-0.3-7.2-2.2c-0.7-2.6-3.3-3.3-5.4-2.5   c-0.2-0.3-0.4-0.6-0.6-1c-0.9-1.6-3-2-4.4-1.2c-0.9-1-1.5-2.3-2.1-3.5c-0.4-0.9-1.6-0.5-1.8,0.2c-1.6,4.3-0.5,7.7,3.2,10.4   c0.4,0.3,0.8,0.4,1.2,0.5c0.6,0.8,1.2,1.6,1.8,2.4c0.6,0.7,1.6,1.1,2.7,1.1c4.8,5.7,15.6,7.9,21.6,4.5   C156,187.8,155.8,184.2,153.4,182.7z" fill="#231F20" opacity="0.6"/><path d="M119.9,160.2C119.9,160.2,119.9,160.1,119.9,160.2c-0.3-0.6-0.6-1.2-0.8-1.8   c0-0.2,0-0.4-0.1-0.7c0-1-0.2-1.9-0.2-2.9c0-0.9-0.3-1.6-0.8-2.1c0.9-2.3-0.1-4.3-2-5c-0.2-0.3-0.3-0.5-0.5-0.7   c0.2-0.5,0.5-0.9,0.7-1.3c0.6-1.3,0.6-2.4,0.2-3.8c-0.3-1.3-1.7-2.3-3-2.3c-5.8,0.1-7.4,7.1-6.5,11.7c0.2,1.3,1.1,2.2,2.1,2.6   c0.4,1,1.1,1.6,1.9,1.9c0,0.1,0,0.1,0,0.2c0.2,1.5,1.4,2.9,2.8,3.3c0.2,0.4,0.5,0.7,0.9,1c0.4,0.4,0.8,0.6,1.3,0.6   c0.6,0.5,1.2,1.1,1.8,1.5C119.2,163.4,120.7,161.5,119.9,160.2z" fill="#231F20" opacity="0.6"/><path d="M143.5,148.3c-0.3-0.8-1.3-1.4-2.2-1.9c0-0.6-0.1-1.3-0.5-2.1c-0.3-0.6-0.9-1.1-1.6-1.4   c-0.1-1.9-0.7-3.8-1.2-4.9c-0.4-0.9-1.2-1.8-2.1-2.1c-0.2-1.4-0.6-2.8-1.1-4.1c0.2-0.6,0.3-1.2,0.5-1.9c0.2-1-0.2-1.9-0.9-2.4   c0.3-0.7,0.7-1.2,1.3-1.8c1-1.1-0.3-3.2-1.7-2.2c-2.1,1.5-3.3,3.3-4.3,5.6c-0.3,0.7-0.1,1.3,0.3,1.8c-0.1,0.3-0.2,0.6-0.3,0.9   c-0.3,0.7-0.3,1.4-0.1,2c-0.2,0.8-0.5,1.8-0.5,1.9c-0.3,1.7,0.1,3.3,0.5,4.9c0.6,2.3,1.8,5,3.8,6.5c0.4,1,1.2,1.8,2.4,2.1   c0.1,0,0.1,0,0.2,0c0.1,0.2,0.2,0.3,0.4,0.4c1,1,1.9,1,3.2,0.8c1.2-0.1,3.1,0.2,3.8-1C143.9,149.3,143.9,148.6,143.5,148.3z" fill="#231F20" opacity="0.6"/><path d="M139.8,162.7c-0.5-1.4-1.9-2.3-3.3-3c-0.1-0.5-0.3-0.9-0.5-1.3c-0.4-0.8-1.2-1-1.9-0.9   c-0.2-0.5-0.9-0.7-1.2-0.1c-0.5,0.9-1,1.7-1.3,2.6c-0.1,0.2-0.2,0.5-0.3,0.8c-0.3,1.2,0.2,2.3,1.2,3c0.8,0.5,1.6,1.1,2.3,1.7   c1.1,0.9,2.7,0.9,3.9,0.2C140.1,165.3,141,163.7,139.8,162.7z" fill="#231F20" opacity="0.6"/><path d="M253.3,175.6c-0.9,2.2-1.4,4.5-4,5.3c-1.3,0.4-2,2-3,2.8c-1.4,1-3.1,1.2-4.7,1.1   c-1,0-1.9,1.1-1.5,2c-0.4-0.1-0.7-0.3-1.1-0.5c-0.7-0.4-1.2,0.6-0.6,1c0.8,0.6,1.5,1.1,2.3,1.5c0.4,0.2,0.8,0.1,1.1-0.1   c0.4-0.3,0.6-0.4,0.7-0.6c1.1,0.1,2.2,0,3.4-0.2c2.2-0.4,3.6-2.3,5.7-2.5c3.9-0.3,6.8-4.7,7.7-8.2   C260.5,173.3,254.8,171.9,253.3,175.6z" fill="#231F20" opacity="0.6"/><path d="M268.8,184.3c-2.3,0.2-3.4,1.8-5.3,2.8c-0.6,0.3-2.9,1.2-2.6,2.3c0.4,1.8,2.8,1.7,4.2,1.4   c2.3-0.5,5.1-1.5,5.7-4C271,185.7,270.2,184.2,268.8,184.3z" fill="#231F20" opacity="0.6"/><path d="M177,181.1c-1.1-2.1-4-2.9-6.5-3c-0.4-0.9-1.4-1.6-2.4-1.2c-0.2,0.1-0.4,0.2-0.5,0.2   c-0.2-0.3-0.5-0.7-0.8-1c-0.5-0.6-1.6-0.1-1.6,0.7c0,0.8-0.1,1.7,0,2.5c0.1,0.7,0.4,1.3,1.1,1.6c0,0.1,0,0.2,0,0.3   c0.2,0.8,0.9,1.5,1.7,1.7c1.1,0.2,2.2,0.3,3.3,0.5c1.1,0.3,1.8,1,2.9,1.3C176.3,185.2,178.1,183.1,177,181.1z" fill="#231F20" opacity="0.6"/><path d="M224.4,172.8c-1.1,0.8-2.1,2-3.3,2.7c-1.4,0.8-2.7,0.9-4.2,1.2c-0.6,0.1-1.2,0.7-1.3,1.3   c-0.2,1.1-0.9,0.8-1.4,0.7c-0.2,0-0.4,0.3-0.2,0.4c0.5,0.2,0.9,0.6,1.1,1.1c0.2,0.3,0.6,0.5,0.9,0.4c1-0.4,2.3,0.3,3.4,0.5   c1.4,0.2,2.7,0.3,4.2,0.1c3.1-0.4,5.2-2.6,5.4-5.7C228.9,173.3,226.2,171.5,224.4,172.8z" fill="#231F20" opacity="0.6"/><path d="M186.6,232.8c-1.5-0.4-3-0.9-4.6-1c-1.4-0.1-1.9-1.7-3.5-1.7c-4.1,0-7.1-1.1-7.6-5.9   c0-0.1-0.1-0.2-0.2-0.1c-2.4,2.2-2.1,5.4,0.6,7.2c1.1,0.8,2,1.7,3.4,1.8c0.8,0.1,1.6,0.2,2.4,0.3c0.2,1.6,1.4,3.1,2.9,3.8   c2.7,1.3,5.5,0.3,7.4-1.8C188,234.5,187.8,233.1,186.6,232.8z" fill="#231F20" opacity="0.6"/><path d="M210.2,221.6c-0.2-0.1-0.5-0.1-0.7,0c-1.5,1.1-1.8,2.3-3.8,2.9c-1.8,0.5-3.5,0.9-4.9,2.1   c-0.3-0.2-0.5-0.3-0.9-0.5c-1-0.3-1.9-0.1-2.9,0c-1.1,0.1-2.2,0.4-2.8,1.3c-0.1,0.1,0,0.3,0.2,0.3c2.4-0.2,4.3,0.9,6.4,1.6   c0.8,0.3,1.5-0.6,2.2-0.9c1-0.4,2.1-0.4,3.2-0.5c1.8-0.2,3.4-0.5,4.6-2C211.9,224.6,211.8,222.6,210.2,221.6z" fill="#231F20" opacity="0.6"/><path d="M183.1,222c-1.2-0.9-2-1-2.2-2.7c-0.1-0.7-0.5-1.3-1.1-1.4c0-0.1,0.1-0.2,0.1-0.3   c0.1-0.4-0.3-0.8-0.7-0.7c-0.6,0.2-1.4,0.4-1.9,0.9c-0.6,0.6-0.9,1.4-1.2,2.2c-0.5,1.1,0.8,1.9,1.7,1.7c0.1,0,0.2-0.1,0.3-0.1   c0.2,0.8,0.6,1.5,1.3,2.1c0.8,0.8,2.8,2.1,4,1.8c0.8-0.2,1-0.8,1.1-1.5C184.7,223.1,183.7,222.5,183.1,222z" fill="#231F20" opacity="0.6"/><path d="M138.2,224.1c-1.1,0.3-0.9,0.4-1.6-0.6c-0.5-0.7-1.1-1.3-1.7-1.8c-0.9-0.7-1.9-1.2-3-1.5   c0-0.2,0-0.3-0.1-0.5c-0.1-0.3-0.3-0.6-0.5-0.9c0.8-1.3,1.7-2.9,0-3.8c-2.5-1.5-4.2,1.8-4.7,3.7c-0.3,0.9,0.2,1.8,1,2.3   c0.1,0.1,0.2,0.1,0.3,0.2c-0.3,1.2,0.6,2.2,1.7,2.3c2.3,0.1,4.2,0.9,5.7,2.7c0.5,0.7,1.3,0.8,2,0.3c0.6-0.5,0.9-1,1.4-1.5   C139.1,224.6,138.7,224,138.2,224.1z" fill="#231F20" opacity="0.6"/><path d="M147.3,218c-0.7-0.7-1.4-0.8-2.3-0.6c-0.2-0.1-0.5-0.3-0.6-0.4c-0.6-0.3-1.4-0.3-1.8,0.2   c-0.3,0.4-1.4,0.2-1.9,0.3c-0.2,0-0.2,0.2-0.2,0.4c0.4,0.9,0.9,1.2,1.7,1.5c0.2,0.7,0.7,1.2,1.4,1.5c1.4,0.6,3,0.6,4-0.8   C148,219.6,147.8,218.6,147.3,218z" fill="#231F20" opacity="0.6"/><path d="M242.9,220.1c-0.8-1.6-2.3-2-3.8-2.7c-0.3-0.6-0.7-1-1-1.6c-0.2-0.4-0.7-0.7-1.2-0.7   c0,0-0.2-0.4-0.4-0.7c-0.1-0.1-0.2-0.1-0.2,0c-0.5,0.8-0.9,1.2-0.8,2c-0.2,0.7-0.3,1.3-0.2,2.1c0.2,1.4,0.5,1.8,1.6,2.6   c1.6,1.2,3.6,2.1,5.5,0.8C243.1,221.5,243.3,220.8,242.9,220.1z" fill="#231F20" opacity="0.6"/><path d="M260.9,221.5c-0.1-0.3-0.4-0.6-0.8-0.6c-1.5,0.1-2.5,1.5-3.8,2.2c-1.3,0.7-2.7,1.2-3.9,2   c-0.6-0.4-1.2-0.8-2-0.6c-0.1,0-0.1,0.2-0.1,0.2c0.5,0.5,1,1.3,1.4,1.9c0.2,0.3,0.7,0.3,1,0.1c1.8-0.8,3.7-0.8,5.5-1.4   C259.8,224.8,261.6,223.3,260.9,221.5z" fill="#231F20" opacity="0.6"/><path d="M297,223.7c-1-2.4-3.8-2.2-6-2.1c-0.9,0-1.8-0.2-2.5,0.5c-0.5,0.5-1.6,0.3-2.3,0.3   c-0.3,0-0.5,0.4-0.2,0.6c0.5,0.4,0.9,0.9,1.4,1.3c0.7,0.5,1.9,0.6,2.6,0.9c1.9,0.8,4.9,1.7,6.5,0.1   C296.9,224.9,297.2,224.2,297,223.7z" fill="#231F20" opacity="0.6"/><path d="M302,212.9c-0.2-0.6-0.6-1-1.2-1.2c-0.3-0.1-0.6-0.1-0.9,0c-0.4,0.2-0.5,0.2-0.3,0.1   c-0.2,0.1-0.4,0.1-0.6,0.2c-0.3,0.1-0.6,0.2-0.8,0.4c-0.1-0.1-0.1-0.2-0.2-0.3c-0.6-0.8-1.8-0.3-1.6,0.7c0.2,1,0.1,2.1,0.4,3.1   c0.3,1.2,2.1,1.5,2.7,0.4c0.1-0.3,0.3-0.5,0.4-0.6c0,0,0,0,0,0c0.1,0,0.2-0.1,0.3-0.1c0.4-0.3,0.9-0.6,1.3-1   C302,214.1,302.2,213.4,302,212.9z" fill="#231F20" opacity="0.6"/></g><g id="light"><path d="M205.7,98.3c-1-1.4-2.6-2.2-4.2-2.8c-1.3-0.5-2.8-0.4-4.2-0.2c-0.7,0-1.4,0.1-2.1,0.4   c-3.1,1.3-5.3,4.1-4.3,7.6c1,3.6,4.3,4.8,7.6,4.3c-1.5,0.2,0.2,0,0.4,0c1.5-0.1,2.7-0.4,4.1-1.1c1.1-0.6,2.1-1.3,2.8-2.4   C207.6,102.8,207.6,99.7,205.7,98.3z" fill="#FFFFFF" opacity="0.5"/><path d="M262.9,135.9c-1.8-2.9-4.1-6.2-6.8-9.1c0-0.3,0.1-0.5,0.1-0.8c0.2-3.1-2.2-5.1-4.9-5.5   c-0.6-0.6-1.2-1.3-1.7-1.8c-1.2-1.2-2.4-2.4-3.7-3.6c-0.5-0.5-1-1-1.6-1.4c-3-2.7-6.3-5.2-9.7-6.9c-1.7-0.9-3.5-1-5.1-0.5   c-1.5-0.3-3-0.5-4.6-0.5c-0.1-0.2-0.2-0.3-0.3-0.5c-0.5-0.8-1.9-1.2-2.6-0.3c-1.2,1.4-2.5,2.4-3.2,4.1c-0.2,0.5,0.3,0.9,0.7,0.5   c0.3-0.3,0.7-0.5,1-0.7c0.2,1.2,1.4,2.1,2.7,2.2c0.5,0.1,1,0.2,1.4,0.3c-0.3,1.4,0,2.9,0.8,4.4c1.8,3,4.4,4.8,7.6,5.9   c1.4,1,2.8,2,4.1,3c0.3,0.2,0.5,0.4,0.8,0.7c-0.1,2.7,2.6,5.4,5.3,5.2c0,0,0,0,0,0c0.1,0.1,0.2,0.1,0.3,0.2   c0.1,0.1,0.1,0.1,0.1,0.2c0.3,4.1,4.4,6.8,7.9,5.6c1.4,1.9,2.6,3.9,3.5,5.3c3.6,5.7,5,12.6,8.7,18.1c0.8,1.2,2.3,1.4,3.4,0.4   C273.9,154.1,266.6,141.8,262.9,135.9z" fill="#FFFFFF" opacity="0.5"/></g><g id="a"/><g id="a_shad"/><g id="a_light"/><g id="b"/><g id="b_shad"/><g id="c"/><g id="c_shad"/><g id="c_lght"/><g id="d"/><g id="d_shad"/><g id="d_lght"/><g id="Layer_28_copy"><g><g id="XMLID_1_"><g><path d="M69.6,206.4c5.4-7.7,13.4-15.4,23.1-12.6l-0.2,1.4c-9.3-1.1-17.4,9.5-21,16.7c-3.8,7.5-5.4,17-1,24.7      c4.3,7.3,12.3,11.3,20.6,12.1c4.4,0.4,8.7,0.2,13-0.8c2.9-0.7,5.5-2,8.1-3.2l2.1,1.8c-2.9,1.9-6.1,3.4-9.5,4.5l68.9,174.6      c1.5,3.6,3.8,6.5,6.5,8.5c2.7,2,5.9,3.1,9.4,3.1c7.1,0,13.5-4.7,16.7-12.3l71.5-181.7c-3.6-1.1-7.1-2.9-10.4-5.3l1.6-2.2      c13.6,5.8,30.9,4.8,38-10.2c2.9-6.1,3.3-13.7-0.1-19.7c-4.6-8.2-12.5-10.4-20.1-14.3l0.6-2.1c9,0.8,18.8,7.7,22.9,15.4      c3.8,7.2,4,15.5,0.5,22.9c-3.5,7.5-10,13.6-18.2,15.7c-3.7,0.9-7.2,1.1-10.6,0.7c-0.1,0.2-0.1,0.4-0.2,0.5l-71.5,181.8      c-1.9,4.6-4.9,8.3-8.4,10.9c-3.6,2.6-7.8,4-12.2,4c-8.6,0-16-5.3-19.8-14.2L100.6,252c-14,2.8-29.7-1.6-35.4-15.6      C61,226.3,63.4,215.2,69.6,206.4z" fill="#231F20"/><path d="M93.7,195.3c-0.4-0.1-0.8-0.1-1.2-0.2l0.2-1.4c-7.2-9.1-9.4-23.3-8.1-33.9c2.1-16.6,11.6-32.6,23.2-44.3      c32.8-32.8,87.1-45.1,129-23.6c21.2,10.9,41.1,29.7,49.3,52.5c4,11,4.5,22,3,33.4c-0.5,3.6-1,7.6-2,11.6l-0.6,2.1      c-1.2,3.9-3,7.6-5.8,10.3c-1,1-2.5-0.5-1.5-1.5c5.3-5.8,5.6-17.4,6.1-24.8c0.6-9.6,0.4-19.1-3-28.2c-9-24.6-31.1-45.2-55.3-54.7      c-23.8-9.4-48.9-8.7-72.8-0.2c-22.5,8-44.5,22.3-56.7,43.3c-5.8,9.9-9.9,20.9-9.5,32.5c0.4,10.9,3.4,23.1,11.9,30.6      c0.5,0.4-0.1,1.3-0.7,0.9c-2-1.2-3.8-2.7-5.3-4.4C93.9,195.3,93.8,195.3,93.7,195.3z" fill="#231F20"/><path d="M231.7,268.2c10.5,8.5,13.4,21,11,32.8c-2.5,12-12.8,22.7-28.4,20.2c-12.5-2-18.8-13.2-22.1-23.3      c-0.2-1.7-0.5-3.3-0.6-5c-0.2-2-0.1-4-0.3-6c0.2-1.5,0.3-2.9,0.6-4.3c0.4-1.7,0.9-3.2,1.6-4.8c3.3-4.8,6.6-9.3,12.4-12.6      C214.7,260.1,224.4,262.4,231.7,268.2z M223.8,292.3c0-6.2-5.1-11.3-11.3-11.3c-6.2,0-11.3,5.1-11.3,11.3s5.1,11.3,11.3,11.3      C218.7,303.6,223.8,298.5,223.8,292.3z" fill="#FFFFFF"/><path d="M237.8,253.1c0.1,0.2,0.2,0.4,0.2,0.6c0,0.2,0,0.3-0.1,0.5c-0.3,0.5-0.9,0.8-1.5,0.7      c-2.5-0.5-4.9-1.8-7.1-3c-2.3-1.3-4.5-2.5-7-3c-1.3-0.3-2.6-0.4-3.9-0.4c-3,0-5.7,0.8-8.5,1.7c-1.4,0.4-2.9,0.9-4.4,1.2      c-0.6,0.1-1.4-0.2-1.7-0.8c-0.2-0.4-0.2-0.9,0.1-1.3c1.8-2.8,4.6-4.8,8-5.7c1.5-0.4,3.2-0.7,5-0.7c3.2,0,6.6,0.7,9.8,1.9      C231.2,246.7,235.3,249.6,237.8,253.1z" fill="#A87C4F"/><path d="M151.1,339.2c1.7,4.8,4,9.3,6.1,13.8c2.3,4.9,4.8,9.3,7.9,13.1c5,6.1,11.8,9.3,18.6,10.3      c0.2,0.2,0.3,0.2,0.5,0.1c2.9,0.4,5.8,0.5,8.5,0.2c8.6-0.9,17.2-5.6,24.1-13.9c3.1-3.8,6-8.2,8.8-12.5c2.4-3.8,5.1-8.3,6.1-13.4      c0.3,0.7,0.7,1.3,1.2,1.6c0.4,0.2,0.7-0.3,0.8-0.8c0.2-1.6-0.8-2.9-1.4-4c-0.6-1.1-1.3-2-2.2-2.2c-0.6-0.1-0.9,1.1-0.5,1.7      c0.2,0.3,0.5,0.7,0.7,1.1c-12.4,10.1-25.7,12.7-39.4,12c-2.7-0.1-5.4-0.4-8-0.6c-0.1,0-0.1,0-0.2,0c-3.8-0.4-7.7-0.8-11.5-1.2      c-7-0.7-13-2.8-19.3-7.2c0.4-0.7,0.8-1.4,0.9-2.2c0.1-0.6-0.1-1-0.5-1.1c-1.1-0.2-2.1,1.7-2.6,3c-0.8,1.9-0.8,3.8-1,5.9      c0,0.7,0.6,1,0.8,0.4c0.2-0.7,0.6-1.3,0.8-2c0.2-0.8,0.5-1.5,0.8-2.3C151.1,339.2,151.1,339.2,151.1,339.2z M164.1,323.8      c15.8-1.9,23.4-15.6,25.8-27.9c1.1,6,3.5,12.4,7.5,17.5c4,5.2,9.6,9.1,17.2,10.3c16.7,2.7,28-9.4,31-22      c3.3-14-1.4-28.4-14.6-37.5c-16.8-11.6-36.6,2.2-41,17.3c-0.3-0.9-0.6-1.8-1-2.7c-0.4-0.8-0.9-1.7-1.5-2.4      c-2.8-5.2-7.3-10-12.3-13.2c-8.1-5.3-18.4-4.2-26.2,0.8c-13.6,8.6-17.6,23.2-15.1,36.9C136.4,313.5,147.6,325.7,164.1,323.8z       M205.8,253.3c1.6-0.4,3.1-0.8,4.5-1.2c2.7-0.8,5.2-1.6,8-1.6c1.1,0,2.3,0.1,3.4,0.4c2.3,0.5,4.3,1.6,6.5,2.8      c2.4,1.3,4.8,2.6,7.6,3.2c0.2,0,0.4,0.1,0.7,0.1c1.2,0,2.5-0.7,3-1.8c0.3-0.5,0.4-1,0.3-1.6c0-0.6-0.2-1.1-0.6-1.6      c-0.5-0.7-1-1.3-1.5-1.9c6.8,0.5,14.1-1.3,20.4-4.8c3.4-1.9,6.5-4.4,9-7.4c3.3,2.4,6.7,4.2,10.4,5.3l-71.5,181.7      c-3.2,7.6-9.6,12.3-16.7,12.3c-3.4,0-6.6-1.1-9.4-3.1c-2.7-2-5-4.9-6.5-8.5L104.7,251c3.4-1.1,6.7-2.6,9.5-4.5      c5.3,4.1,12.3,5.8,18.9,6.2c2.9,0.2,6.7,0.2,10.5-0.3c-0.2,0.4-0.3,0.7-0.3,1.1c-0.1,0.6,0.1,1.1,0.3,1.7c0.6,1.1,1.8,1.8,3,1.8      c0.2,0,0.4,0,0.7-0.1c2.9-0.6,5.6-2,8.1-3.3c1.3-0.7,2.7-1.4,4.1-2c8.3,5.1,19.4,5.1,28.8,3.8c4.7-0.7,9.4-1.8,13.9-3.4      C203,253.1,204.5,253.6,205.8,253.3z M201.9,382.9c0.4-0.3,0.1-1.2-0.2-1.1c-4,0.9-7.8,3-11.8,3.5c-3.9,0.4-7.7-2.3-11.6-1.8      c-0.5,0.1-0.6,1-0.2,1.3C186.1,389.2,194,388.1,201.9,382.9z" fill="#F2DB91"/><path d="M237.8,253.1c-2.5-3.5-6.6-6.5-11.2-8.3l0.7-1.9c1.2,0.5,2.5,1.1,3.6,1.7c8.4,2.6,18.5,0.6,25.8-3.9      c5.2-3.2,10.2-7.9,12-13.9c2.1-6.9-0.1-12.9-2.7-19.3c-0.4-0.9,0.9-1.4,1.5-0.9c9.1,8.5,7.7,20.2,1.4,29l-1.6,2.2      c-2.5,3-5.6,5.6-9,7.4c-6.3,3.4-13.6,5.3-20.4,4.8c0.6,0.6,1.1,1.2,1.5,1.9c0.3,0.5,0.5,1,0.6,1.6l-2,0.2      C238,253.5,237.9,253.3,237.8,253.1z" fill="#231F20"/><path d="M229.5,337.4c-1.4,4.7-3.8,9-6.4,12.9c-3.3,1.5-6.5,3.3-9.8,4.8c0.1-2.6,0-5.2,0-7.8      C219,345.5,224.6,342.4,229.5,337.4z" fill="#FFFFFF"/><path d="M212.5,280.9c6.2,0,11.3,5.1,11.3,11.3s-5.1,11.3-11.3,11.3c-6.2,0-11.3-5.1-11.3-11.3      S206.2,280.9,212.5,280.9z M214.5,294.2c5.9,0,5.9-9.1,0-9.1C208.6,285.1,208.6,294.2,214.5,294.2z" fill="#231F20"/><path d="M220.5,354c-1.5,2-3,3.9-4.4,5.6c-1.2,1.5-2.5,2.9-3.8,4.2c0.4-2,0.7-4.2,0.9-6.3      C215.7,356.6,218.1,355.5,220.5,354z" fill="#FFFFFF"/><path d="M214.5,285.1c5.9,0,5.9,9.1,0,9.1C208.6,294.2,208.6,285.1,214.5,285.1z" fill="#FFFFFF"/><path d="M221,241.3c-0.3-0.4-0.6-0.7-0.8-1.1c-0.2,0.2-0.4,0.4-0.6,0.6c-0.1,0.1-0.1,0.2-0.2,0.2      C219.9,241.1,220.5,241.2,221,241.3z M216.8,242.9c-1.8,0-3.5,0.2-5,0.7l-0.5-1.9c0.7-0.2,1.4-0.4,2.1-0.5c1.2-1,2.4-2,3.5-3.2      c3.1-3.4,5.3-7.3,6-11.9c1-5.7-0.7-10.7-1.9-16.3c-0.1-0.6,0.7-1,1-0.4c5.6,9.3,5.9,20.6-0.5,29.3c1.4,1.6,3,2.9,4.7,3.9      c0.4,0.1,0.7,0.3,1.1,0.4l-0.7,1.9C223.4,243.6,220,242.9,216.8,242.9z" fill="#231F20"/><path d="M212.2,347.6c-0.2,2.8-0.4,5.5-0.7,8.2c-0.8,0.3-1.7,0.7-2.5,1c-3.5,1.2-7,2-10.6,2.5      c-0.2-3.2-0.4-6.4-0.3-9.6C202.8,349.6,207.6,349,212.2,347.6z" fill="#FFFFFF"/><path d="M211.3,358.2c-0.3,2.5-0.6,4.9-0.9,7.3c-3.6,3-7.6,5.1-11.6,6.4c0.2-3.5,0-7-0.2-10.5      c3.3-0.5,6.5-1.3,9.8-2.2C209.3,358.8,210.3,358.5,211.3,358.2z" fill="#FFFFFF"/><path d="M189.8,349.6c2.4,0.1,4.9,0.2,7.4,0.1c-0.4,3.2-0.5,6.5-0.4,9.8c-1.7,0.2-3.5,0.3-5.2,0.4      c-2.5,0.1-5.1,0-7.5-0.2c-0.1-3.5-0.2-7-0.5-10.5C185.6,349.4,187.7,349.5,189.8,349.6z" fill="#FFFFFF"/><path d="M196.8,361.6c0.1,3.6,0.3,7.2,0.4,10.7c-1.9,0.5-3.7,0.8-5.6,1c-2.3,0.2-4.7,0.1-7.1-0.3      c0-3.6-0.2-7.2-0.4-10.7c2.5,0.1,5,0,7.4-0.1C193.3,362,195.1,361.9,196.8,361.6z" fill="#FFFFFF"/><path d="M189.1,292.4c-0.2,1-0.5,2.1-0.8,3.2c-3,10.5-8.9,22.2-21.7,25.4c-15.5,3.8-26.2-7.7-29.2-19.2      c-3.1-11.8,0.1-24,9.8-32.8c7-6.4,16.3-8.6,25.7-4.4c7.2,3.3,10.8,9.4,14.8,15.2c0,0,0,0,0,0c0.3,0.8,0.6,1.6,0.8,2.4      c0.2,0.9,0.5,1.8,0.6,2.8c-0.1,1,0,2.1,0,3.2C189.1,289.6,189,291,189.1,292.4z M177.8,294.1c0-6.2-5.1-11.3-11.3-11.3      c-6.2,0-11.3,5.1-11.3,11.3c0,6.2,5.1,11.3,11.3,11.3C172.7,305.4,177.8,300.4,177.8,294.1z" fill="#FFFFFF"/><path d="M192.2,297.9c3.2,10.1,9.6,21.3,22.1,23.3c15.6,2.5,25.9-8.2,28.4-20.2c2.5-11.8-0.4-24.3-11-32.8      c-7.3-5.8-17-8.1-25.8-3c-5.7,3.3-9.1,7.9-12.4,12.6c-0.7,1.6-1.2,3.2-1.6,4.8c-0.3,1.4-0.5,2.9-0.6,4.3c0.2,2,0.1,4,0.3,6      C191.7,294.6,192,296.3,192.2,297.9z M190,281.5c4.4-15.1,24.2-28.9,41-17.3c13.1,9.1,17.9,23.5,14.6,37.5      c-3,12.6-14.3,24.7-31,22c-7.6-1.2-13.2-5.2-17.2-10.3c-4-5.1-6.4-11.5-7.5-17.5l-1.6-0.2c0.3-1.1,0.6-2.2,0.8-3.2      c-0.1-1.4,0-2.9-0.1-4.2c0-1.1,0-2.1,0-3.2c-0.2-0.9-0.4-1.8-0.6-2.8c-0.2-0.8-0.5-1.6-0.8-2.4c0,0,0,0,0,0l1.4-1      C189.4,279.7,189.7,280.6,190,281.5z" fill="#231F20"/><path d="M182.6,362.2c0,3.4-0.1,7.1,0.3,10.5c-4.1-0.9-8.2-2.7-11.8-5.4c0-2.4-0.4-4.8-0.9-7.1      C174.2,361.5,178.4,362,182.6,362.2z" fill="#FFFFFF"/><path d="M182.4,349.2c0.1,3.5,0.1,6.9,0.2,10.4c-4.4-0.5-8.8-1.3-13.1-2.5c0-0.1,0-0.2-0.1-0.2      c-0.6-3-1.1-6.1-1.7-9c0.2,0,0.3,0.1,0.5,0.1C172.9,348.6,177.7,349,182.4,349.2z" fill="#FFFFFF"/><path d="M179.4,249.3c0.3,0.4,0.3,0.9,0.1,1.3c-0.3,0.6-1,0.9-1.6,0.8c-1.6-0.4-3.1-0.8-4.5-1.3      c-2.8-0.9-5.4-1.7-8.2-1.7c-1.4,0-2.7,0.2-4.1,0.6c-2.3,0.7-4.4,1.8-6.5,2.9c-2.4,1.3-4.9,2.6-7.6,3.2c-0.1,0-0.2,0-0.3,0      c-0.5,0-1-0.3-1.2-0.8c-0.1-0.2-0.1-0.4-0.1-0.6c0-0.2,0.1-0.3,0.2-0.5c1.4-2,3.4-3.9,5.7-5.4c2.3-1.5,4.9-2.8,7.7-3.6      c2.5-0.8,5.1-1.2,7.6-1.2C172.1,242.9,176.7,245.2,179.4,249.3z" fill="#A87C4F"/><path d="M189.8,385.4c4-0.5,7.9-2.6,11.8-3.5c0.4-0.1,0.7,0.8,0.2,1.1c-7.9,5.2-15.8,6.3-23.9,1.9      c-0.5-0.3-0.3-1.2,0.2-1.3C182.1,383,185.9,385.8,189.8,385.4z" fill="#231F20"/><path d="M166.5,282.8c6.2,0,11.3,5.1,11.3,11.3c0,6.2-5.1,11.3-11.3,11.3c-6.2,0-11.3-5.1-11.3-11.3      C155.2,287.9,160.2,282.8,166.5,282.8z M168.5,296.1c5.9,0,5.9-9.1,0-9.1C162.6,287,162.6,296.1,168.5,296.1z" fill="#231F20"/><path d="M168.5,287c5.9,0,5.9,9.1,0,9.1C162.6,296.1,162.6,287,168.5,287z" fill="#FFFFFF"/><path d="M168.3,359.7c0.3,2.1,0.6,4.2,1,6.2c-1.3-1.1-2.5-2.2-3.6-3.6c-1.4-1.6-2.6-3.5-3.8-5.4      C163.9,358,166.1,359,168.3,359.7z" fill="#FFFFFF"/><path d="M155.1,343.5c3.4,2.5,7.5,3.5,11.3,4.2c0.1,3,0.7,6.1,1.3,9c-2.4-0.7-4.8-1.4-7.2-2.2      C158.7,350.9,157,347,155.1,343.5z" fill="#FFFFFF"/><path d="M152.3,244.7c-6.3-10-3.1-23.7,5.9-31c0.8-0.6,1.9,0.4,1.1,1.1c-7.4,6.6-8.7,19.8-2.8,27.9      c0.6-0.2,1.2-0.4,1.7-0.6l0.6,1.9c-2.7,0.8-5.4,2.1-7.7,3.6l-2.1-0.9C150.1,246,151.2,245.3,152.3,244.7z" fill="#231F20"/><path d="M182.6,359.6c0-3.5-0.1-6.9-0.2-10.4c-4.8-0.3-9.5-0.6-14.2-1.3c-0.2,0-0.3,0-0.5-0.1      c0.6,3,1.1,6.1,1.7,9c0,0.1,0,0.2,0.1,0.2C173.8,358.3,178.2,359.2,182.6,359.6z M169.2,365.9c-0.4-2-0.6-4.1-1-6.2      c-2.2-0.7-4.3-1.7-6.4-2.8c1.1,2,2.4,3.8,3.8,5.4C166.7,363.7,168,364.8,169.2,365.9z M213.3,347.3c0.1,2.5,0.1,5.2,0,7.8      c3.3-1.5,6.5-3.3,9.8-4.8c2.7-3.9,5.1-8.3,6.4-12.9C224.6,342.4,219,345.5,213.3,347.3z M155.1,343.5c1.9,3.5,3.6,7.4,5.4,11      c2.4,0.8,4.8,1.5,7.2,2.2c-0.5-2.9-1.2-6-1.3-9C162.6,347,158.6,346,155.1,343.5z M182.6,362.2c-4.2-0.2-8.4-0.8-12.4-2      c0.5,2.3,0.9,4.7,0.9,7.1c3.7,2.7,7.7,4.5,11.8,5.4C182.5,369.3,182.6,365.6,182.6,362.2z M212.3,363.8c1.3-1.3,2.6-2.6,3.8-4.2      c1.4-1.7,2.9-3.6,4.4-5.6c-2.4,1.5-4.9,2.6-7.4,3.5C213,359.7,212.7,361.8,212.3,363.8z M196.8,359.5c0-3.3,0.1-6.6,0.4-9.8      c-2.5,0-5,0-7.4-0.1c-2.1-0.1-4.2-0.2-6.2-0.3c0.3,3.5,0.4,6.9,0.5,10.5c2.5,0.2,5,0.3,7.5,0.2      C193.4,359.8,195.1,359.7,196.8,359.5z M198.8,371.9c4-1.3,8-3.4,11.6-6.4c0.3-2.5,0.6-4.9,0.9-7.3c-1,0.3-2,0.6-2.9,0.9      c-3.2,1-6.5,1.7-9.8,2.2C198.8,364.9,199,368.4,198.8,371.9z M190.9,346.3c13.7,0.7,27-1.9,39.4-12c-0.2-0.4-0.5-0.7-0.7-1.1      c-0.4-0.5,0-1.8,0.5-1.7c1,0.2,1.6,1.2,2.2,2.2c0.6,1,1.6,2.4,1.4,4c-0.1,0.5-0.4,1.1-0.8,0.8c-0.6-0.3-0.9-1-1.2-1.6      c-1,5.1-3.7,9.6-6.1,13.4c-2.8,4.4-5.7,8.8-8.8,12.5c-6.9,8.2-15.5,13-24.1,13.9c-2.7,0.3-5.6,0.2-8.5-0.2      c-0.2,0.1-0.4,0.1-0.5-0.1c-6.8-1.1-13.6-4.2-18.6-10.3c-3.1-3.7-5.6-8.2-7.9-13.1c-2.1-4.5-4.4-9-6.1-13.8c0,0,0-0.1-0.1-0.1      c-0.3,0.7-0.5,1.5-0.8,2.3c-0.2,0.7-0.6,1.3-0.8,2c-0.2,0.6-0.8,0.3-0.8-0.4c0.2-2.1,0.2-4,1-5.9c0.5-1.3,1.5-3.3,2.6-3      c0.4,0.1,0.6,0.5,0.5,1.1c-0.1,0.8-0.5,1.5-0.9,2.2c6.2,4.4,12.3,6.5,19.3,7.2c3.8,0.4,7.7,0.8,11.5,1.2c0.1,0,0.1,0,0.2,0      C185.6,345.9,188.2,346.1,190.9,346.3z M198.2,349.7c-0.1,3.2,0.1,6.4,0.3,9.6c3.6-0.5,7.1-1.3,10.6-2.5c0.8-0.3,1.7-0.6,2.5-1      c0.3-2.7,0.5-5.5,0.7-8.2C207.6,349,202.8,349.6,198.2,349.7z M184.2,362.3c0.1,3.6,0.4,7.2,0.4,10.7c2.4,0.4,4.8,0.5,7.1,0.3      c1.8-0.2,3.7-0.5,5.6-1c-0.1-3.5-0.3-7.1-0.4-10.7c-1.8,0.2-3.5,0.4-5.3,0.6C189.1,362.3,186.6,362.4,184.2,362.3z" fill="#231F20"/><path d="M143.2,253.5c0-0.4,0.1-0.7,0.3-1.1c-3.8,0.5-7.6,0.5-10.5,0.3c-6.6-0.4-13.6-2.2-18.9-6.2l-2.1-1.8      c-0.6-0.6-1.1-1.2-1.6-1.8c-8.5-10.7-4.1-33.5,10.9-35.3c0.5-0.1,0.7,0.7,0.2,0.9c-11.7,5-15.4,26.8-4.5,34.3      c6.1,4.2,13.7,5.4,21,5.4c3.8,0,7.3-0.6,10.8-1.4l2.1,0.9c-2.3,1.5-4.3,3.4-5.7,5.4c-0.1,0.1-0.2,0.3-0.2,0.5L143.2,253.5z" fill="#231F20"/><path d="M209.8,250.1c2.8-0.8,5.5-1.7,8.5-1.7c1.3,0,2.6,0.1,3.9,0.4c2.5,0.6,4.7,1.8,7,3c2.2,1.2,4.6,2.5,7.1,3      c0.6,0.1,1.2-0.2,1.5-0.7c0.1-0.2,0.1-0.3,0.1-0.5l2-0.2c0,0.5-0.1,1.1-0.3,1.6c-0.6,1.1-1.8,1.8-3,1.8c-0.2,0-0.4,0-0.7-0.1      c-2.8-0.6-5.3-1.9-7.6-3.2c-2.2-1.2-4.3-2.3-6.5-2.8c-1.2-0.3-2.3-0.4-3.4-0.4c-2.7,0-5.3,0.8-8,1.6c-1.4,0.4-2.9,0.9-4.5,1.2      c-1.3,0.3-2.8-0.3-3.6-1.3c-4.5,1.7-9.2,2.8-13.9,3.4c-9.4,1.3-20.6,1.3-28.8-3.8c-1.4,0.6-2.7,1.3-4.1,2      c-2.6,1.3-5.2,2.7-8.1,3.3c-0.2,0-0.4,0.1-0.7,0.1c-1.2,0-2.4-0.7-3-1.8c-0.3-0.5-0.4-1.1-0.3-1.7l2,0.1c0,0.2,0,0.4,0.1,0.6      c0.2,0.4,0.7,0.8,1.2,0.8c0.1,0,0.2,0,0.3,0c2.7-0.6,5.2-1.9,7.6-3.2c2.1-1.1,4.2-2.2,6.5-2.9c1.4-0.4,2.7-0.6,4.1-0.6      c2.9,0,5.5,0.8,8.2,1.7c1.4,0.5,2.9,1,4.5,1.3c0.6,0.1,1.4-0.2,1.6-0.8c0.2-0.4,0.2-0.9-0.1-1.3c-2.7-4.1-7.3-6.4-13-6.4      c-2.5,0-5.1,0.4-7.6,1.2l-0.6-1.9c2.7-0.8,5.5-1.3,8.2-1.3c6.4,0,11.6,2.6,14.7,7.3c0.6,1,0.7,2.1,0.2,3.2      c3.7-0.1,7.3-0.6,10.6-1.2c3.7-0.7,7.4-1.8,11-3.2c2.1-2.6,4.9-4.4,8.3-5.3l0.5,1.9c-3.4,0.9-6.2,2.9-8,5.7      c-0.3,0.4-0.3,0.9-0.1,1.3c0.3,0.6,1,0.9,1.7,0.8C206.9,251,208.4,250.6,209.8,250.1z" fill="#231F20"/><path d="M147.2,269c-9.7,8.9-12.9,21-9.8,32.8c3,11.5,13.7,23,29.2,19.2c12.8-3.2,18.8-14.9,21.7-25.4l1.6,0.2      c-2.4,12.3-10,26.1-25.8,27.9c-16.6,1.9-27.7-10.2-30.1-22.9c-2.5-13.7,1.5-28.2,15.1-36.9c7.8-4.9,18.1-6,26.2-0.8      c5,3.3,9.5,8,12.3,13.2c0.6,0.7,1.1,1.5,1.5,2.4l-1.4,1c-3.9-5.8-7.6-11.9-14.8-15.2C163.5,260.4,154.2,262.6,147.2,269z" fill="#231F20"/></g><g/></g></g></g><g id="red_light"/><g id="Layer_19_copy"><path d="M139.1,276.2c-6.3-6.8-12.1-14-18.7-20.6c-3.1-3.1-6.4-6.1-9.7-8.9c-0.1,0-0.2,0.1-0.2,0.1   c-3.1,1.2-6.1,2.3-9.3,3c3.1,3.6,6.3,7,9.4,10.5c6.9,7.6,13.2,15.7,20.1,23.2c0.8,0.9,1.6,1.7,2.5,2.6c-3.1,2.8-6.2,5.6-9.4,8.4   c-1.2,1-2.3,2.1-3.5,3.1c0.9,1.8,1.6,3.8,2.2,5.4c0.7,2.1,1.4,4.2,2,6.3c1.4-0.8,2.6-1.5,3.6-2.2c2.7-1.6,5.3-3.6,7.8-5.6   C133.4,293.6,134.9,283.2,139.1,276.2z" fill="#E5C36E"/><path d="M199.6,255.3c-1.4-1.1-2.9-2.2-4.3-3.2c-7.1,2.6-15.8,3.3-22.8,1.1c-1.7,1.7-3.5,3.3-5.3,4.9   c-1.2,1.1-2.5,2.2-3.8,3.3c3,0,6,0.7,8.7,1.9c2.3,0.5,4.3,1.5,6,3.2c3.2-2.9,6.4-6,9.2-9.3c1.5,1.2,3,2.3,4.5,3.5   c3.1,2.4,6.1,4.9,9.1,7.3c2.1-2.4,4.8-4.6,7.8-5.7C205.6,259.9,202.6,257.6,199.6,255.3z" fill="#E5C36E"/><path d="M168,345.5c2.2,0.7,4.3,1.4,6.5,2c5.3-4,10.5-8.1,15.7-12.2c5.7,4.3,11.5,8.5,17.3,12.7   c4.3-0.6,8.4-2.6,12.2-4.9c-6.9-4.9-13.8-9.8-20.6-14.9c3.1-2.6,6.3-5.1,9.4-7.7c-4.4-1.5-8.2-4.6-10.6-8.6c-3.2,2.7-6.4,5.3-9.7,8   c-1.7-1.3-3.4-2.7-5.1-4c-0.9-0.7-1.8-1.4-2.7-2.2c-2.2,3.2-5.5,5.8-9.2,6.8c1.4,1.1,2.7,2.2,4.1,3.3c1.4,1.1,2.8,2.2,4.2,3.3   c-4.5,3.7-9.1,7.4-13.6,11.1c-1.9,1.5-3.9,3.1-5.9,4.6c0.2,0.3,0.4,0.6,0.5,0.8C163,344.4,165.6,344.7,168,345.5z" fill="#E5C36E"/><path d="M230.3,350.4c-1.5-1-3-2.1-4.5-3.1c-1.7,3.3-3.7,6.5-6.1,9.3c1.2,0.8,2.3,1.6,3.5,2.5   c2.2,1.5,4.4,3.1,6.7,4.7c-9.2,7.5-18.6,14.6-28.4,21.3c-2.7,1.9-5.4,3.7-8.2,5.5c-6.8-4.8-13.5-9.7-20.1-14.7   c-6.3-4.8-12.5-9.8-18.6-14.8c2-1.2,4-2.4,5.9-3.7c-2-3.6-3.3-7.4-5.5-10.8c-3.1,2.3-6.3,4.6-9.4,6.8c-1.5-1.3-3-2.6-4.4-3.9   c2.7,6.2,5.4,12.3,7.7,18.7c6.6,5.5,13.4,10.9,20.3,16.1c5.2,3.9,10.5,7.9,15.9,11.8c-6.9,4.4-14,8.5-21.1,12.6   c1.4,3.1,2.5,6.3,3.7,9.4c2.1-1,4.2-2,6.3-3.1c7.3-3.6,14.3-7.6,21.2-11.9c5.9,4,12,7.9,18.1,11.5c0.8-3.1,1.7-6.2,2.8-9.2   c-1.9-1.2-3.8-2.3-5.7-3.5c-2.2-1.4-4.4-2.8-6.6-4.3c1.7-1.1,3.5-2.2,5.2-3.3c5.3-3.4,10.5-6.9,15.7-10.5c1.1-4.2,3.8-7.6,5.7-11.4   c0.7-1.7,1.3-3.5,2-5.3c1.2-4.4,2.7-8.4,4.4-12.4C234.6,353.2,232.4,351.8,230.3,350.4z" fill="#E5C36E"/><path d="M264.8,253.7c-6.5,5.9-13,11.6-19.3,17.6c-1.7,1.6-3.4,3.1-5.1,4.7c5.5,6.3,5.7,15.5,4.6,24   c3.5,2.2,7,4.3,10.5,6.4c1.1-3.2,2.3-6.4,3.6-9.4c-4.3-2.6-8.5-5.2-12.8-7.9c2.5-2.2,5.1-4.5,7.6-6.8c6.4-5.9,12.5-12,18.4-18.3   c1.3-3.4,2.7-6.7,4.1-10.1c1.1-2.7,2.5-5.6,2.9-8.5c0.2-1.3,0.3-2.7,0.4-4.1C274.3,244.8,269.4,249.5,264.8,253.7z" fill="#E5C36E"/></g><g id="shadcone"><path d="M155.1,255c2.4,3.5,7,5.4,10.9,6.7c6.6,2.2,13.9,1.5,20.7,0.5c6.7-1.1,13.3-3.3,19.6-6   c4.1-1.8,8.8-3.8,12.7-6.6c-4.5,0.1-8.1,1.7-12.3,2.8c-1.8,0.4-3.6-0.9-3.6-2.7c0-0.6,0.2-1.1,0.5-1.6c-5.4,2.4-11.1,4-16.8,5.1   c-5.7,1-11.6,0.9-17.3,0.1c-3.6-0.5-6.8-2.1-10.2-3.2c-4.3,1.7-8,4.3-12.2,5.9c-1.8,0.7-3-1.6-2.3-3c1.1-2.2,2.7-3.9,4.6-5.2   c-5.3,1.6-10.5,2.5-16.2,2.7c-3.5,0.1-6.9-0.1-10.2-1c-1.9-0.5-3.8-1.4-5.6-2.1c-0.3-0.8-0.8-1.4-1.7-2c-1.1-0.8-3-0.7-4.1,0   c-1.5,0.9-2.9,1.8-4.4,2.6c-1.6,0.9-2.7,1.4-3.8,2.9c-0.3,0.4-0.3,1.1,0,1.6c0.2,0.3,0.4,0.6,0.6,0.8c-0.8,1.2-0.8,2.8,0.6,4.3   c0,0,0.1,0.1,0.1,0.1c0.5,0.7,1,1.3,1.6,2c2.2,3.3,3.2,7.5,4.3,11.3c1.4,4.9,3,9.5,4.7,14.3c2.5,6.8,3.9,17.8,10.3,22   c0.3,0.2,0.6,0.2,0.9,0.1c6.2,16.8,12,33.7,18.2,50.5c6.3,17.1,13.8,34,19.2,51.4c2.1,6.7,4.2,13.1,7.9,19.1   c3.6,5.8,7.6,8.7,13.4,11.8c1.5,0.8,3.1-0.3,3.3-1.7c4.1,1.7,9.2,2.4,10.4-1.9c0,0,0-0.1,0-0.1c-1.7-1.6-4.4-1.4-6.5-1.9   c-3-0.7-5.6-3.1-7.6-5.4c-2.1-2.3-3.6-4.8-5.1-7.4c-2.1-6-3.8-12.2-5.7-18.2c-5.3-16.6-12.8-32.4-19.1-48.6   c-6.7-17.2-12.5-34.9-19-52.2c-3.1-8.3-6-16.6-9-24.9c-1.5-4.1-2.7-8.3-4.1-12.4c-0.9-2.7-1.9-5.1-2.5-7.7c3.2,1.1,6.7,1.6,9.4,1.9   C137.8,260.3,147.7,258.7,155.1,255z" fill="#231F20"/><path d="M225.1,243.8c0.5,0.1,0.9,0.3,1.4,0.4c-0.8-0.4-1.7-0.7-2.5-1c-0.2-2.8-3.1-5.2-6.2-3.4   c-1.4,0.8-2.8,1.7-4.2,2.5C217.3,241.8,221,242.7,225.1,243.8z" fill="#231F20"/><path d="M277.3,241.7c-1.3-1-3-1.1-4.6-1.4c-0.2,0-0.4-0.1-0.6-0.1c-0.5-0.4-1-0.8-1.5-1.1   c-0.4-1.1-1.4-1.9-2.8-1.9c-4.2,0.1-7.8,4-11.5,6c-4.1,2.2-8.8,3.6-13.5,4c-4.2,0.4-8.4-0.1-12.3-1.4c3.1,1.5,5.7,3.5,7.8,6.6   c0,0,0,0.1,0.1,0.1c1.3,1.4-0.6,4.1-2.7,3.1c-4.7-2.4-10.4-5.9-15.9-6c-0.1,0-0.1,0-0.2,0c4.5,5.7,15.6,7.6,21.8,7.2   c5.9-0.4,11.4-2.3,16.7-4.8c2.7-1.3,7-3.5,9.8-6.2c1.8,1.4,3.9,2.1,6.3,2.1c1.4,0,2.9-0.4,3.9-1.4c1-0.9,1.1-2.4,1.2-3.7   C279.4,241.6,278.1,241.2,277.3,241.7z" fill="#231F20"/></g><g id="lightcone"><path d="M260.3,273.3c-8.7,9.9-12.3,23.1-17,35.2c-5.1,13.3-11,26.6-14,40.6c-0.1,0.6,0.6,0.9,1,0.4   c8.3-11.2,12.9-24.8,17.8-37.7c4.7-12.5,10.9-25,12.3-38.4C260.5,273.3,260.4,273.2,260.3,273.3z" fill="#FFFFFF"/><path d="M261.8,257.8c-5.4,0-5.4,8.3,0,8.3C267.2,266.1,267.2,257.8,261.8,257.8z" fill="#FFFFFF"/></g><g id="Layer_23"/><g id="Layer_28_copy_2"><g><path d="M100.6,252l69.1,175.1c3.7,8.9,11.1,14.2,19.8,14.2c0,0,0,0,0,0c8.9,0,16.7-5.7,20.6-14.9l71.5-181.8    c0.1-0.2,0.1-0.4,0.2-0.5c3.4,0.4,6.9,0.3,10.6-0.7c8.2-2.1,14.7-8.2,18.2-15.7c3.5-7.4,3.3-15.7-0.5-22.9    c-4.1-7.7-13.9-14.6-22.9-15.4c1-3.9,1.5-8,2-11.6c1.5-11.5,0.9-22.5-3-33.4C278,121.7,258,102.9,236.9,92    c-42-21.5-96.2-9.2-129,23.6c-11.7,11.7-21.2,27.7-23.3,44.3c-1.3,10.6,0.9,24.8,8.1,33.9c-9.7-2.8-17.7,4.9-23.1,12.6    c-6.1,8.8-8.5,19.9-4.4,30.1C70.9,250.5,86.6,254.9,100.6,252z M206.2,424.9c-3.2,7.6-9.6,12.3-16.7,12.3c0,0,0,0,0,0    c-6.9,0-12.8-4.3-15.9-11.6L104.7,251c3.4-1.1,6.7-2.6,9.5-4.5c5.3,4.1,12.3,5.8,18.9,6.2c2.9,0.2,6.7,0.2,10.5-0.3    c-0.4,0.9-0.4,1.9,0,2.8c0.6,1.1,1.8,1.8,3,1.8c0.2,0,0.5,0,0.7-0.1c3-0.6,5.6-2,8.1-3.3c1.3-0.7,2.7-1.4,4.1-2    c8.3,5.1,19.4,5.1,28.8,3.8c4.7-0.7,9.4-1.8,13.9-3.4c0.8,1.1,2.3,1.6,3.6,1.3c1.6-0.4,3.1-0.8,4.6-1.3c2.7-0.8,5.2-1.6,8-1.6    c1.1,0,2.3,0.1,3.4,0.4c2.3,0.5,4.3,1.6,6.5,2.8c2.4,1.3,4.8,2.6,7.6,3.2c0.2,0,0.4,0.1,0.7,0.1c1.2,0,2.4-0.7,3-1.8    c0.5-1,0.4-2.2-0.2-3.2c-0.5-0.6-1-1.3-1.5-1.9c6.8,0.5,14.1-1.3,20.4-4.8c3.4-1.9,6.5-4.4,9-7.4c3.3,2.4,6.7,4.2,10.4,5.3    L206.2,424.9z M179.5,250.6c-0.3,0.6-1.1,0.9-1.7,0.8c-1.6-0.4-3.1-0.8-4.5-1.3c-2.8-0.9-5.4-1.7-8.2-1.7c-1.4,0-2.7,0.2-4.1,0.6    c-2.3,0.7-4.4,1.8-6.5,2.9c-2.4,1.3-4.9,2.6-7.6,3.2c-0.1,0-0.2,0-0.3,0h0c-0.5,0-1-0.3-1.2-0.8c-0.2-0.4-0.2-0.8,0.1-1.1    c4.2-5.9,13-10.2,21-10.2c5.7,0,10.3,2.3,13,6.4C179.7,249.7,179.7,250.2,179.5,250.6z M216.8,242.9c8,0,16.8,4.3,21,10.2    c0.2,0.3,0.3,0.7,0.1,1.1c-0.3,0.5-0.9,0.8-1.5,0.7c-2.5-0.5-4.9-1.8-7.1-3c-2.3-1.3-4.5-2.5-7.1-3c-1.3-0.3-2.6-0.4-3.9-0.4    c-3,0-5.7,0.8-8.5,1.7c-1.4,0.4-2.9,0.9-4.4,1.2c-0.6,0.1-1.4-0.2-1.7-0.8c-0.2-0.4-0.2-0.9,0.1-1.3    C206.4,245.2,211.1,242.9,216.8,242.9z M219.4,241.1c0.1-0.1,0.2-0.2,0.2-0.2c0.2-0.2,0.4-0.4,0.6-0.7c0.3,0.4,0.5,0.7,0.8,1.1    C220.5,241.2,219.9,241.1,219.4,241.1z M71.4,211.8c3.8-7.5,12.4-18.6,22.2-16.5c0.1,0,0.2,0,0.3,0c1.6,1.7,3.3,3.2,5.3,4.4    c0.6,0.3,1.2-0.5,0.7-0.9c-8.5-7.5-11.5-19.7-11.9-30.6c-0.5-11.6,3.7-22.6,9.5-32.5c12.3-21,34.3-35.3,56.7-43.3    c24-8.6,49-9.2,72.8,0.1c24.2,9.5,46.3,30.1,55.3,54.7c3.4,9.2,3.6,18.6,3,28.3c-0.5,7.4-0.8,19-6.1,24.8c-0.9,1,0.5,2.5,1.5,1.5    c2.8-2.7,4.6-6.3,5.8-10.3c7.7,3.9,15.5,6.1,20.1,14.3c3.4,6,3,13.6,0.1,19.7c-7.1,15-24.4,16-38,10.2c6.2-8.8,7.7-20.5-1.4-29    c-0.6-0.6-1.8,0-1.5,0.9c2.6,6.4,4.8,12.3,2.7,19.3c-1.8,6-6.8,10.7-12,13.9c-7.3,4.5-17.4,6.5-25.8,3.9c-1.5-0.8-3.1-1.5-4.7-2.1    c-1.7-1-3.3-2.3-4.7-3.9c6.4-8.6,6.1-20,0.5-29.3c-0.3-0.6-1.2-0.2-1,0.4c1.2,5.5,2.9,10.5,1.9,16.3c-0.8,4.6-2.9,8.5-6,11.9    c-1.1,1.2-2.2,2.2-3.4,3.2c-4.3,0.7-7.9,2.7-10.4,5.8c-3.6,1.4-7.4,2.4-11,3.2c-3.4,0.7-7,1.1-10.6,1.2c0.5-1,0.4-2.2-0.2-3.2    c-3.1-4.7-8.3-7.3-14.7-7.3c-3.3,0-6.7,0.7-9.9,1.9c-5.8-8.2-4.6-21.4,2.8-27.9c0.8-0.7-0.3-1.7-1.1-1.1c-9,7.2-12.2,21-5.9,31    c-1.2,0.6-2.3,1.3-3.3,2.1c-3.5,0.7-7,1.4-10.8,1.4c-7.3-0.1-14.9-1.2-21-5.4c-10.9-7.5-7.2-29.4,4.5-34.3c0.4-0.2,0.2-1-0.2-0.9    c-15,1.9-19.4,24.7-10.9,35.3c0.5,0.6,1.1,1.2,1.6,1.8c-2.6,1.2-5.2,2.5-8.1,3.2c-4.3,1-8.6,1.2-13,0.8    c-8.3-0.8-16.3-4.8-20.6-12.1C66,228.8,67.6,219.3,71.4,211.8z" fill="#282727"/><path d="M231,264.2c-16.8-11.6-36.6,2.2-41,17.3c-0.5-1.8-1.3-3.6-2.5-5.1c-2.8-5.2-7.3-10-12.3-13.2    c-8.1-5.3-18.4-4.2-26.2,0.8c-13.5,8.6-17.6,23.2-15.1,36.9c2.4,12.7,13.5,24.9,30.1,22.9c15.8-1.9,23.4-15.6,25.8-27.9    c0,0,0,0,0,0c2.3,12,9.5,25.4,24.7,27.8c16.7,2.7,28-9.4,31-22C248.9,287.7,244.1,273.3,231,264.2z M166.5,321    c-15.5,3.8-26.2-7.7-29.2-19.2c-3.1-11.8,0.1-24,9.8-32.8c7-6.4,16.3-8.6,25.7-4.4c7.2,3.3,10.8,9.4,14.8,15.2    c0.3,0.8,0.6,1.6,0.8,2.4c0.2,0.9,0.4,1.8,0.6,2.7c-0.1,1,0,2.1,0,3.2c0,1.4,0,2.8,0.1,4.2C186.4,303.6,180.7,317.5,166.5,321z     M242.7,301c-2.5,12-12.8,22.7-28.4,20.2c-12.5-2-18.8-13.2-22.1-23.3c-0.2-1.7-0.5-3.3-0.6-5c-0.2-2-0.1-4-0.3-6    c0.2-1.5,0.3-2.9,0.6-4.3c0.4-1.7,0.9-3.2,1.6-4.8c3.3-4.8,6.7-9.3,12.4-12.6c8.8-5.1,18.6-2.8,25.8,3    C242.2,276.7,245.1,289.2,242.7,301z" fill="#282727"/><path d="M166.5,282.8c-6.2,0-11.3,5.1-11.3,11.3c0,6.2,5.1,11.3,11.3,11.3c6.2,0,11.3-5.1,11.3-11.3    C177.8,287.9,172.7,282.8,166.5,282.8z M168.5,296.1c-5.9,0-5.9-9.1,0-9.1C174.4,287,174.4,296.1,168.5,296.1z" fill="#282727"/><path d="M212.5,281c-6.2,0-11.3,5.1-11.3,11.3c0,6.2,5.1,11.3,11.3,11.3c6.2,0,11.3-5.1,11.3-11.3    C223.8,286,218.7,281,212.5,281z M214.5,294.2c-5.9,0-5.9-9.1,0-9.1C220.4,285.1,220.4,294.2,214.5,294.2z" fill="#282727"/><path d="M230.1,331.5c-0.6-0.1-0.9,1.1-0.5,1.7c0.2,0.3,0.5,0.7,0.7,1.1c-12.4,10.1-25.7,12.7-39.4,12    c-2.7-0.1-5.4-0.4-8-0.6c-0.1,0-0.1,0-0.2,0c-3.8-0.4-7.7-0.8-11.5-1.2c-7-0.7-13-2.8-19.3-7.1c0.4-0.7,0.7-1.4,0.9-2.2    c0.1-0.6-0.1-1-0.5-1.1c-1.1-0.2-2.1,1.7-2.6,3c-0.8,1.9-0.8,3.8-1,5.9c0,0.6,0.6,1,0.8,0.4c0.2-0.7,0.6-1.3,0.8-2    c0.2-0.8,0.5-1.5,0.8-2.3c0,0,0,0.1,0.1,0.1c1.7,4.8,4,9.3,6.1,13.8c2.3,4.9,4.8,9.3,7.9,13.1c5,6.1,11.8,9.3,18.6,10.4    c0.2,0.2,0.4,0.2,0.5,0.1c2.9,0.4,5.8,0.5,8.5,0.2c8.7-0.8,17.2-5.6,24.1-13.9c3.1-3.7,6-8.2,8.8-12.5c2.4-3.8,5.2-8.3,6.1-13.4    c0.3,0.7,0.7,1.3,1.2,1.6c0.4,0.2,0.7-0.3,0.8-0.8c0.2-1.6-0.8-2.9-1.4-4C231.8,332.7,231.1,331.7,230.1,331.5z M198.8,371.9    c0.2-3.5,0-7-0.2-10.5c3.3-0.5,6.6-1.3,9.8-2.3c1-0.3,1.9-0.6,2.9-0.9c-0.3,2.4-0.6,4.9-0.9,7.3    C206.8,368.5,202.8,370.6,198.8,371.9z M209,356.8c-3.5,1.2-7,2-10.6,2.5c-0.2-3.2-0.4-6.4-0.3-9.6c4.7-0.2,9.4-0.7,14.1-2.1    c-0.2,2.8-0.4,5.5-0.7,8.2C210.7,356.2,209.9,356.6,209,356.8z M197.3,349.7c-0.4,3.2-0.5,6.5-0.4,9.8c-1.7,0.2-3.5,0.3-5.2,0.4    c-2.5,0.1-5,0-7.5-0.2c-0.1-3.5-0.2-7-0.5-10.5c2.1,0.1,4.2,0.2,6.2,0.3C192.2,349.7,194.7,349.8,197.3,349.7z M182.9,372.7    c-4.1-0.9-8.2-2.7-11.8-5.4c0-2.4-0.4-4.8-0.9-7.1c4.1,1.2,8.3,1.8,12.4,1.9C182.6,365.6,182.5,369.3,182.9,372.7z M182.4,349.2    c0.1,3.5,0.1,6.9,0.2,10.4c-4.4-0.5-8.8-1.3-13.1-2.5c0-0.1,0-0.2-0.1-0.3c-0.6-3-1.1-6.1-1.7-9c0.2,0,0.3,0,0.5,0.1    C172.9,348.6,177.7,349,182.4,349.2z M155.1,343.5c3.4,2.5,7.5,3.5,11.3,4.2c0.1,3.1,0.7,6.1,1.3,9c-2.4-0.7-4.8-1.4-7.2-2.2    C158.7,350.9,157,347,155.1,343.5z M165.6,362.4c-1.4-1.6-2.6-3.5-3.8-5.5c2.1,1.1,4.2,2.1,6.4,2.8c0.3,2.1,0.6,4.2,1,6.2    C168,364.8,166.7,363.7,165.6,362.4z M191.7,373.3c-2.3,0.2-4.7,0.1-7.1-0.3c0-3.6-0.2-7.2-0.4-10.7c2.5,0.1,5,0,7.4-0.1    c1.8-0.1,3.5-0.3,5.3-0.6c0.1,3.6,0.3,7.2,0.4,10.7C195.4,372.8,193.5,373.1,191.7,373.3z M216.1,359.7c-1.2,1.5-2.5,2.9-3.8,4.2    c0.4-2,0.7-4.2,0.9-6.3c2.5-0.9,5-2,7.4-3.5C219,356,217.5,357.9,216.1,359.7z M223.1,350.4c-3.3,1.5-6.5,3.3-9.8,4.8    c0.1-2.6,0.1-5.2,0-7.8c5.8-1.8,11.3-4.9,16.3-9.9C228.2,342.1,225.8,346.4,223.1,350.4z" fill="#282727"/><path d="M201.7,381.9c-4,1-7.8,3-11.8,3.5c-3.9,0.4-7.7-2.3-11.6-1.8c-0.5,0.1-0.6,1-0.2,1.3    c8.1,4.4,15.9,3.2,23.9-1.9C202.3,382.7,202.1,381.8,201.7,381.9z" fill="#282727"/></g></g><g id="top_copy_2"/></svg>