<?xml version="1.0" encoding="utf-8"?>
<!-- Generator: Adobe Illustrator 14.0.0, SVG Export Plug-In . SVG Version: 6.00 Build 43363)  -->
<!DOCTYPE svg PUBLIC "-//W3C//DTD SVG 1.1//EN" "http://www.w3.org/Graphics/SVG/1.1/DTD/svg11.dtd">
<svg version="1.1" id="Layer_1" xmlns="http://www.w3.org/2000/svg" xmlns:xlink="http://www.w3.org/1999/xlink" x="0px" y="0px"
	  viewBox="0 0 40 40" enable-background="new 0 0 40 40" xml:space="preserve">
<g>
	<path d="M27.373,13.227c-0.705,0-1.278-0.572-1.278-1.277V9.861c0-0.707,0.573-1.281,1.278-1.281h2.088
		c0.706,0,1.28,0.574,1.28,1.281v2.088c0,0.705-0.574,1.277-1.28,1.277H27.373z M27.279,12.043h2.277V9.766h-2.277V12.043z"/>
	<path d="M20.054,16.74c-2.042,0-3.702,1.661-3.702,3.703s1.66,3.703,3.702,3.703c2.043,0,3.704-1.661,3.704-3.703
		S22.097,16.74,20.054,16.74z M20.054,22.764c-1.278,0-2.319-1.041-2.319-2.32c0-1.278,1.041-2.318,2.319-2.318
		c1.279,0,2.32,1.04,2.32,2.318C22.374,21.723,21.333,22.764,20.054,22.764z"/>
	<path d="M34.275,15.381v-5.9c0-2.14-1.74-3.881-3.879-3.881H9.582c-2.139,0-3.879,1.741-3.879,3.881v21.037
		c0,2.142,1.74,3.883,3.879,3.883h20.814c2.139,0,3.879-1.741,3.879-3.883l0.004-14.807c0.012-0.051,0.018-0.104,0.018-0.152
		S34.29,15.458,34.275,15.381z M30.396,6.984c1.376,0,2.495,1.12,2.495,2.496v5.388l-7.846-0.026
		c-1.392-1.256-3.188-1.947-5.06-1.947c-1.137,0-2.233,0.248-3.261,0.738l-0.284,0.14c-0.735,0.336-1.257,0.846-1.309,0.892
		c-0.068,0.057-0.142,0.118-0.271,0.203H7.086V9.48c0-1.049,0.663-1.992,1.648-2.35l0.25-0.093c0.003-0.001,0.327-0.054,1.167-0.054
		H30.396z M19.986,26.613c-3.399,0-6.166-2.768-6.166-6.17c0-3.399,2.767-6.166,6.166-6.166c3.403,0,6.172,2.767,6.172,6.166
		C26.158,23.846,23.39,26.613,19.986,26.613z M7.086,16.252h6.625l-0.098,0.153c-0.771,1.213-1.177,2.609-1.177,4.038
		c0,4.165,3.387,7.553,7.55,7.553c4.166,0,7.556-3.388,7.556-7.553c0-1.432-0.407-2.828-1.178-4.039l-0.099-0.152h6.626v14.266
		c0,1.378-1.119,2.5-2.495,2.5H9.582c-1.376,0-2.496-1.122-2.496-2.5V16.252z"/>
</g>
</svg>
